PathFileType	4	(x/y/z)	S06_P20_T30
DataRate	CameraRate	NumFrames	NumMarkers	Units	OrigDataRate	OrigDataStartFrame	OrigNumFrames
240	240	9	51	mm	240	217	347
Frame#	Time	Sternum			R.Acromium			L.Acromium			Top.Head			R.ASIS			L.ASIS			R.PSIS			L.PSIS			R.Great.Tro			L.Great.Tro			R.Iliac.Crest			L.Iliac.Crest			V.Sacral			R.Thigh.Upper.Post			R.Thigh.Lower.Ant			R.Thigh.Lower.Post			R.Thigh.Upper.Ant			R.Knee.Lat			R.Knee.Med			R.Shank.Upper.Post			R.Shank.Lower.Ant			R.Shank.Lower.Post			R.Shank.Upper.Ant			R.Ankle.Lat			R.Ankle.Med			R.Heel.Upper			R.Heel.Med			R.Heel.Lat			R.Toe.Lat			R.Toe.Med			R.Toe.Tip			L.Thigh.Upper.Post			L.Thigh.Lower.Ant			L.Thigh.Lower.Post			L.Thigh.Upper.Ant			L.Knee.Lat			L.Knee.Med			L.Shank.Upper.Post			L.Shank.Lower.Ant			L.Shank.Lower.Post			L.Shank.Upper.Ant			L.Ankle.Lat			L.Ankle.Med			L.Heel.Upper			L.Heel.Med			L.Heel.Lat			L.Toe.Lat			L.Toe.Med			L.Toe.Tip			Cervical.Spine			Back			
		X1	Y1	Z1	X2	Y2	Z2	X3	Y3	Z3	X4	Y4	Z4	X5	Y5	Z5	X6	Y6	Z6	X7	Y7	Z7	X8	Y8	Z8	X9	Y9	Z9	X10	Y10	Z10	X11	Y11	Z11	X12	Y12	Z12	X13	Y13	Z13	X14	Y14	Z14	X15	Y15	Z15	X16	Y16	Z16	X17	Y17	Z17	X18	Y18	Z18	X19	Y19	Z19	X20	Y20	Z20	X21	Y21	Z21	X22	Y22	Z22	X23	Y23	Z23	X24	Y24	Z24	X25	Y25	Z25	X26	Y26	Z26	X27	Y27	Z27	X28	Y28	Z28	X29	Y29	Z29	X30	Y30	Z30	X31	Y31	Z31	X32	Y32	Z32	X33	Y33	Z33	X34	Y34	Z34	X35	Y35	Z35	X36	Y36	Z36	X37	Y37	Z37	X38	Y38	Z38	X39	Y39	Z39	X40	Y40	Z40	X41	Y41	Z41	X42	Y42	Z42	X43	Y43	Z43	X44	Y44	Z44	X45	Y45	Z45	X46	Y46	Z46	X47	Y47	Z47	X48	Y48	Z48	X49	Y49	Z49	X50	Y50	Z50	X51	Y51	Z51	

217	0.9	-76.574	1274.2	288.2	-174.88	1486.8	466.37	-212.1	1488.1	116	-156.45	1803.9	287.47	-137.24	1038.6	422.78	-141.89	1034.9	169.14	NaN	NaN	NaN	-340.13	1072.5	254.13	-200.1	976.02	473.97	-233.94	970.03	117.58	-211.02	1122.1	453.53	-209.56	1111.3	134.98	-352.73	1037.9	298.95	-234.4	725	454.91	-191.18	639.18	418.11	-259.03	641.33	435.39	-163.47	724.06	435.04	-264.86	526.14	415.18	-263.73	536.57	288.15	-396.02	331.88	411.43	-370.19	250.49	382.1	-432.49	265.37	394.34	-333.43	316.74	399.71	-464.04	133.3	363.37	-452.94	134.44	275.13	-543.46	109.58	317.36	-541.78	76.686	288	-540.43	78.066	352.86	-368.49	37.866	389.97	-343.95	38.683	267.99	-276.01	43.56	313.79	-105.46	725.4	129.18	-36.492	665	190.43	-97.998	636.65	149.41	-53.02	756.52	168.17	-81.01	547.77	167.69	-51.8	561.23	287.04	-57.245	318.64	175.75	22.707	279.42	168.45	-38.416	248.65	191.29	1.1671	346.81	159.44	56.596	120.83	179.86	67.736	137.49	270.54	6.6028	59.093	231.28	24.058	40.365	266.42	23.91	35.269	204.4	187.42	99.293	158.04	201.33	128.01	272.13	257.64	167.14	215.18	-248.85	1541.2	297.24	-317.62	1272.4	302.79
218	0.90417	-70.795	1273.8	287.84	-169.24	1486.4	466.08	-206.59	1487.6	115.68	-151	1803.5	287.24	-131.32	1038.3	422.52	-135.98	1034.4	168.89	NaN	NaN	NaN	-334.23	1072	253.84	-194.23	975.74	473.71	-227.94	969.44	117.44	-205.11	1121.7	453.24	-203.62	1110.7	134.63	-346.79	1037.4	298.66	-228.4	724.69	454.89	-184.96	638.78	418.45	-252.9	640.97	435.5	-157.39	723.77	435.25	-258.89	525.76	415.5	-257.44	536.03	288.47	-392.04	332.93	411.78	-367.17	251.24	382.5	-429.29	266.85	394.74	-329.64	317.08	400.11	-462.36	134.97	363.81	-451.34	136.2	275.57	-541.96	112.45	317.87	-540.77	79.735	288.34	-539.4	80.775	353.23	-368.19	37.871	390.06	-343.69	38.883	268.04	-275.89	43.39	313.82	-99.769	724.76	129.27	-30.679	664.37	190.37	-92.439	636.06	149.71	-47.068	755.86	167.9	-75.46	547.16	167.88	-46.102	560.74	287.06	-52.889	317.96	175.98	26.84	278.28	169.13	-34.567	247.88	191.62	5.762	345.78	160.04	59.758	119.79	180.58	70.46	136.25	271.37	9.0958	59.202	231.56	26.001	40.104	266.77	26.216	35.243	204.72	190.61	97.323	159.63	203.72	125.79	273.85	260.77	164.52	217.37	-243.26	1540.8	296.95	-311.85	1271.8	302.48
219	0.90833	-65.014	1273.5	287.47	-163.6	1486	465.77	-201.09	1487.2	115.34	-145.55	1803.2	287.01	-125.41	1038	422.25	-130.05	1033.9	168.62	NaN	NaN	NaN	-328.31	1071.5	253.56	-188.35	975.48	473.44	-221.92	968.88	117.3	-199.2	1121.4	452.94	-197.67	1110.2	134.27	-340.85	1036.9	298.36	-222.26	724.37	454.9	-178.55	638.38	418.84	-246.59	640.58	435.63	-151.18	723.52	435.48	-252.69	525.36	415.86	-250.9	535.47	288.81	-387.88	334.06	412.15	-363.98	252.05	382.94	-425.91	268.42	395.15	-325.68	317.47	400.54	-460.53	136.75	364.27	-449.56	138.06	276.04	-540.28	115.52	318.4	-539.62	82.998	288.7	-538.23	83.682	353.61	-367.86	37.898	390.16	-343.39	39.107	268.11	-275.78	43.222	313.85	-94.027	724.17	129.36	-24.815	663.77	190.31	-86.83	635.51	150.01	-41.056	755.24	167.62	-69.882	546.6	168.05	-40.372	560.27	287.05	-48.661	317.31	176.23	30.816	277.13	169.83	-30.895	247.13	191.96	10.249	344.75	160.64	62.63	118.73	181.32	72.909	134.94	272.22	11.235	59.381	231.86	27.569	39.865	267.1	28.127	35.272	205.02	193.46	95.207	161.21	205.83	123.33	275.57	263.65	161.63	219.57	-237.67	1540.4	296.65	-306.07	1271.4	302.18
220	0.9125	-59.232	1273.2	287.1	-157.95	1485.6	465.45	-195.57	1486.9	114.98	-140.09	1802.9	286.77	-119.5	1037.8	421.96	-124.11	1033.4	168.35	NaN	NaN	NaN	-322.38	1071	253.27	-182.46	975.25	473.16	-215.88	968.35	117.17	-193.29	1121.1	452.64	-191.73	1109.7	133.92	-334.9	1036.4	298.07	-215.99	724.04	454.93	-171.93	637.99	419.27	-240.1	640.16	435.8	-144.84	723.29	435.73	-246.26	524.95	416.25	-244.1	534.87	289.18	-383.52	335.26	412.53	-360.62	252.93	383.41	-422.34	270.09	395.58	-321.55	317.92	401	-458.54	138.65	364.76	-447.58	140.03	276.53	-538.4	118.79	318.94	-538.3	86.485	289.05	-536.92	86.799	353.99	-367.52	37.955	390.25	-343.08	39.359	268.17	-275.66	43.057	313.87	-88.237	723.62	129.45	-18.914	663.2	190.25	-81.183	635	150.32	-34.993	754.65	167.35	-64.289	546.07	168.21	-34.628	559.83	287.03	-44.539	316.69	176.48	34.657	275.96	170.54	-27.372	246.4	192.3	14.641	343.71	161.24	65.256	117.66	182.08	75.131	133.6	273.09	13.084	59.627	232.17	28.823	39.654	267.43	29.699	35.355	205.31	195.99	92.977	162.76	207.71	120.67	277.25	266.3	158.51	221.74	-232.09	1540.1	296.33	-300.3	1270.9	301.87
221	0.91667	-53.447	1272.9	286.72	-152.31	1485.3	465.12	-190.06	1486.5	114.62	-134.62	1802.7	286.52	-113.6	1037.6	421.65	-118.14	1033	168.06	NaN	NaN	NaN	-316.44	1070.6	252.96	-176.55	975.03	472.87	-209.84	967.86	117.03	-187.39	1120.9	452.33	-185.78	1109.3	133.56	-328.95	1036	297.77	-209.57	723.7	454.99	-165.12	637.62	419.74	-233.41	639.73	435.99	-138.36	723.1	436	-239.6	524.53	416.67	-237.03	534.24	289.59	-378.96	336.54	412.93	-357.07	253.9	383.91	-418.57	271.86	396.01	-317.23	318.43	401.49	-456.36	140.66	365.27	-445.38	142.1	277.04	-536.3	122.27	319.49	-536.79	90.207	289.41	-535.43	90.14	354.37	-367.15	38.051	390.35	-342.73	39.642	268.23	-275.56	42.892	313.88	-82.41	723.11	129.54	-12.991	662.66	190.2	-75.51	634.53	150.62	-28.893	754.09	167.09	-58.693	545.58	168.36	-28.888	559.41	287.01	-40.505	316.11	176.73	38.389	274.79	171.26	-23.967	245.71	192.65	18.954	342.67	161.85	67.68	116.59	182.84	77.172	132.23	273.96	14.698	59.936	232.49	29.821	39.478	267.74	30.988	35.493	205.59	198.24	90.664	164.26	209.39	117.85	278.89	268.77	155.19	223.85	-226.51	1539.8	296	-294.53	1270.5	301.56
222	0.92083	-47.662	1272.7	286.34	-146.68	1485	464.77	-184.54	1486.3	114.24	-129.15	1802.5	286.27	-107.7	1037.4	421.33	-112.15	1032.7	167.76	NaN	NaN	NaN	-310.49	1070.2	252.65	-170.64	974.84	472.56	-203.78	967.41	116.89	-181.5	1120.7	452.01	-179.82	1108.9	133.2	-323	1035.6	297.46	-203	723.35	455.09	-158.1	637.26	420.26	-226.53	639.26	436.22	-131.74	722.94	436.28	-232.7	524.1	417.14	-229.68	533.58	290.04	-374.17	337.9	413.33	-353.31	254.94	384.45	-414.6	273.73	396.46	-312.72	319.01	402.02	-453.99	142.8	365.8	-442.93	144.28	277.58	-533.95	125.97	320.04	-535.07	94.174	289.77	-533.76	93.716	354.74	-366.76	38.193	390.43	-342.35	39.961	268.3	-275.46	42.728	313.88	-76.553	722.64	129.63	-7.0584	662.15	190.16	-69.821	634.1	150.92	-22.768	753.56	166.84	-53.107	545.13	168.5	-23.172	559.02	286.98	-36.54	315.56	176.99	42.034	273.63	171.97	-20.652	245.05	193	23.203	341.66	162.46	69.939	115.55	183.6	79.072	130.85	274.82	16.13	60.303	232.81	30.613	39.34	268.03	32.041	35.683	205.86	200.26	88.297	165.69	210.93	114.9	280.46	271.09	151.72	225.89	-220.93	1539.5	295.66	-288.77	1270.1	301.25
223	0.925	-41.875	1272.6	285.96	-141.05	1484.7	464.41	-179.01	1486	113.86	-123.66	1802.3	286.02	-101.82	1037.2	420.99	-106.14	1032.4	167.45	NaN	NaN	NaN	-304.52	1069.8	252.33	-164.72	974.68	472.23	-197.71	967	116.75	-175.62	1120.5	451.69	-173.85	1108.6	132.83	-317.04	1035.3	297.14	-196.29	723	455.21	-150.88	636.92	420.82	-219.45	638.78	436.49	-124.97	722.81	436.59	-225.54	523.67	417.64	-222.03	532.88	290.52	-369.17	339.35	413.75	-349.35	256.08	385.02	-410.41	275.7	396.91	-308	319.67	402.57	-451.4	145.08	366.34	-440.23	146.57	278.14	-531.34	129.9	320.59	-533.13	98.394	290.12	-531.87	97.538	355.11	-366.33	38.392	390.51	-341.93	40.32	268.36	-275.36	42.562	313.86	-70.677	722.21	129.73	-1.1298	661.66	190.14	-64.126	633.71	151.21	-16.629	753.05	166.62	-47.539	544.71	168.62	-17.501	558.65	286.96	-32.627	315.06	177.24	45.613	272.5	172.67	-17.402	244.43	193.34	27.402	340.67	163.05	72.069	114.54	184.34	80.868	129.49	275.67	17.42	60.722	233.14	31.244	39.248	268.31	32.904	35.922	206.11	202.06	85.899	167.04	212.35	111.86	281.93	273.29	148.13	227.82	-215.35	1539.3	295.3	-283	1269.8	300.94
224	0.92917	-36.09	1272.5	285.59	-135.43	1484.6	464.04	-173.47	1485.8	113.46	-118.18	1802.2	285.76	-95.942	1037.1	420.64	-100.12	1032.2	167.13	NaN	NaN	NaN	-298.55	1069.5	251.98	-158.8	974.53	471.89	-191.63	966.64	116.59	-169.75	1120.4	451.35	-167.88	1108.3	132.47	-311.08	1035	296.8	-189.42	722.64	455.38	-143.45	636.6	421.41	-212.17	638.28	436.79	-118.06	722.72	436.91	-218.14	523.23	418.2	-214.09	532.15	291.06	-363.93	340.9	414.17	-345.17	257.3	385.62	-405.99	277.79	397.37	-303.08	320.4	403.16	-448.59	147.48	366.91	-437.25	148.97	278.72	-528.43	134.07	321.15	-530.92	102.88	290.47	-529.76	101.62	355.46	-365.87	38.659	390.58	-341.46	40.726	268.43	-275.26	42.392	313.83	-64.788	721.82	129.83	4.7834	661.2	190.14	-58.435	633.35	151.5	-10.488	752.58	166.43	-41.998	544.33	168.72	-11.89	558.31	286.94	-28.75	314.61	177.48	49.143	271.41	173.36	-14.199	243.86	193.66	31.562	339.72	163.63	74.099	113.58	185.07	82.588	128.15	276.5	18.604	61.186	233.46	31.755	39.202	268.56	33.615	36.205	206.35	203.68	83.492	168.3	213.69	108.76	283.3	275.38	144.45	229.62	-209.78	1539.1	294.94	-277.24	1269.5	300.62
225	0.93333	-30.304	1272.4	285.22	-129.81	1484.4	463.67	-167.93	1485.7	113.06	-112.68	1802.1	285.49	-90.08	1037	420.29	-94.075	1032.1	166.81	NaN	NaN	NaN	-292.58	1069.3	251.62	-152.87	974.4	471.54	-185.55	966.32	116.41	-163.89	1120.3	451.01	-161.88	1108.1	132.1	-305.13	1034.8	296.45	-182.39	722.28	455.58	-135.83	636.3	422.04	-204.69	637.76	437.13	-111.01	722.68	437.26	-210.48	522.79	418.8	-205.84	531.4	291.64	-358.45	342.54	414.61	-340.75	258.62	386.27	-401.33	279.99	397.83	-297.93	321.22	403.8	-445.53	150.03	367.49	-433.98	151.48	279.32	-525.22	138.48	321.71	-528.44	107.62	290.81	-527.39	105.96	355.81	-365.37	39.006	390.64	-340.93	41.186	268.5	-275.15	42.218	313.78	-58.894	721.48	129.93	10.671	660.76	190.15	-52.752	633.02	151.77	-4.3564	752.13	166.27	-36.488	543.99	168.81	-6.3586	557.98	286.93	-24.899	314.2	177.69	52.639	270.36	174.03	-11.025	243.34	193.96	35.695	338.81	164.19	76.048	112.67	185.77	84.254	126.85	277.29	19.704	61.687	233.78	32.176	39.204	268.79	34.207	36.526	206.57	205.14	81.093	169.45	214.96	105.62	284.55	277.4	140.71	231.29	-204.22	1538.9	294.56	-271.49	1269.3	300.29
